/* XPM */
static char *branch_xpm[] = {
/* columns rows colors chars-per-pixel */
"16 16 39 1 ",
"  c #3B8200",
". c #3D8400",
"X c #428300",
"o c #418600",
"O c #428700",
"+ c #438700",
"@ c #448700",
"# c #458700",
"$ c #468700",
"% c #478700",
"& c #468800",
"* c #478800",
"= c #498900",
"- c #4B8B00",
"; c #4A8C00",
": c #9AB900",
"> c #99BB00",
", c #98BE00",
"< c #98C000",
"1 c #98C200",
"2 c #99C200",
"3 c #98C300",
"4 c #9AC400",
"5 c #98C600",
"6 c #99C700",
"7 c #98C900",
"8 c #9ACB00",
"9 c #98CD00",
"0 c #9BCC00",
"q c #9ACD00",
"w c #98D000",
"e c #9AD000",
"r c #99D200",
"t c #99D500",
"y c #9AD600",
"u c #99D900",
"i c #9AD900",
"p c #A1E300",
"a c None",
/* pixels */
"aa=pp=aaaaaaaaaa",
"aa$uu%aaaaaaaaaa",
"aa$tt$aaaaaaaaaa",
"aa$rr=aaaaaaaaaa",
"aa$wr$aaaaa-.aaa",
"aa+9q$%%=%=X..aa",
"aa$7770870787..a",
"aa+6646444444..a",
"aaO33+#$$++ ..aa",
"aaO,3Oaaaaa;.aaa",
"aa+,,+aaaaaaaaaa",
"a;.>> ;aaaaaaaaa",
"a..>>..aaaaaaaaa",
"aa.>>.aaaaaaaaaa",
"aaa..aaaaaaaaaaa",
"aaaaaaaaaaaaaaaa"
};
