/* XPM */
static char *condition_xpm[] = {
/* columns rows colors chars-per-pixel */
"16 16 99 2 ",
"   c #589914",
".  c #589915",
"X  c #599A16",
"o  c #5A9C16",
"O  c #5B9C16",
"+  c #5B9C17",
"@  c #5D9F18",
"#  c #5E9F19",
"$  c #609F19",
"%  c #5EA018",
"&  c #5FA018",
"*  c #5EA118",
"=  c #5FA119",
"-  c #5FA218",
";  c #5EA318",
":  c #60A219",
">  c #60A319",
",  c #60A21A",
"<  c #61A21A",
"1  c #61A31A",
"2  c #62A21A",
"3  c #62A41A",
"4  c #63A51B",
"5  c #60A61A",
"6  c #62A41C",
"7  c #63A51C",
"8  c #65A41D",
"9  c #65A91C",
"0  c #65A81D",
"q  c #67A81E",
"w  c #66A91F",
"e  c #67AA1E",
"r  c #68AC1E",
"t  c #6AA820",
"y  c #6AAB20",
"u  c #6BAB21",
"i  c #6BB120",
"p  c #6DBD21",
"a  c #74B426",
"s  c #73B923",
"d  c #75BC27",
"f  c #77B429",
"g  c #72C424",
"h  c #79C227",
"j  c #7BC427",
"k  c #7DC727",
"l  c #7CC528",
"z  c #7DC728",
"x  c #7DC729",
"c  c #7DC52D",
"v  c #7BC82A",
"b  c #7FD82C",
"n  c #80C32C",
"m  c #85C62F",
"M  c #82CA2B",
"N  c #82CE2B",
"B  c #83CA2C",
"V  c #82CB2E",
"C  c #87CE2E",
"Z  c #86D22C",
"A  c #87D32D",
"S  c #84D02E",
"D  c #88D12F",
"F  c #89D52E",
"G  c #89D62F",
"H  c #82CA30",
"J  c #8ACC32",
"K  c #8EC937",
"L  c #8DCD36",
"P  c #96CF3D",
"I  c #87D334",
"U  c #8AD230",
"Y  c #8DD033",
"T  c #8DD432",
"R  c #84DC30",
"E  c #8FDB33",
"W  c #8FDE31",
"Q  c #8FDE34",
"!  c #8FDB3A",
"~  c #95DD37",
"^  c #92D038",
"/  c #93D33A",
"(  c #90D939",
")  c #95DB38",
"_  c #96D93A",
"`  c #98DA3B",
"'  c #90E133",
"]  c #93E334",
"[  c #94E434",
"{  c #95E435",
"}  c #94E535",
"|  c #94E338",
" . c #9DE43B",
".. c #96EA3C",
"X. c #9EDA40",
"o. c #A0DA43",
"O. c #A1DC43",
"+. c #A7F549",
"@. c None",
/* pixels */
"@.@.@.@.@.@.@.@.@.@.@.@.@.@.@.@.",
"@.@.@.@.@.@.@.@.@.@.@.@.@.@.@.@.",
"@.o o @.@.@.@.@.@.@.X % @.@.@.@.",
"5 g b v 1 @.@.@.@.@.1 B 5 @.@.@.",
"; p R ..( w @.9 j l D ~ L e @.@.",
"@.@.; I +.H ; D { E T ) ` a @.@.",
"@.@.@.6 ( d N ] B % 1 J u @.@.@.",
"@.@.@.@.; h ] l X @.X + @.@.@.@.",
"@.@.@.@.i ' F r X @.X o @.@.@.@.",
"@.@.@.; F W s B C + 1 L u @.@.@.",
"@.@.1 C { k # U  ._ / X.o.f @.@.",
"6 c | { Z 5 @.e n m ^ O.P t @.@.",
"9 V Q j 1 @.@.@.@.@.1 K 8 @.@.@.",
"@.+ + @.@.@.@.@.@.@.X $ @.@.@.@.",
"@.@.@.@.@.@.@.@.@.@.@.@.@.@.@.@.",
"@.@.@.@.@.@.@.@.@.@.@.@.@.@.@.@."
};
