/* XPM */
static char *event_xpm[] = {
/* columns rows colors chars-per-pixel */
"16 16 3 1 ",
"  c #14AAAB",
". c #14ABAC",
"X c None",
/* pixels */
"..XXXXXXXXXXXXXX",
".. X.XXXXXXXXXXX",
"X.  .XXXXXXXXX .",
"XX. .XXXXXX  X .",
"X ...XXXXXX..X .",
"XXXXXXXX.X. XX..",
"XXXXXXX. X. XX .",
"XXXXXX   X..XX..",
"XXXXX...X. XXX. ",
"XXXX ..XX..XXX..",
"XXX...XX..XXXX. ",
"XX. .XXX. XXXX. ",
"X.  XXXX. XXXX  ",
" . XXXX .XXXXX .",
"..XXXXX .XXXXX. ",
"XXXXXXXXXXXXXX.."
};
