/* XPM */
static char *function_xpm[] = {
/* columns rows colors chars-per-pixel */
"16 16 2 1 ",
"  c #2CB05A",
". c None",
/* pixels */
"................",
"................",
"................",
"....   .........",
".... ...........",
"...  ..  ...  ..",
".       ..... ..",
"... .. .  .   ..",
"... .. ..  .. ..",
"... ..   .  . ..",
"..  .. .....  ..",
"... ..  ...  ...",
"    ............",
"................",
"................",
"................"
};
