/* XPM */
static char *loop_xpm[] = {
/* columns rows colors chars-per-pixel */
"16 16 2 1 ",
"  c #24854E",
". c None",
/* pixels */
"......      ....",
".....         ..",
"  ..   ..... ...",
"  .   ..........",
"     ...........",
"    ............",
"      ..........",
"      ..........",
"..........      ",
"..........      ",
"...........     ",
"..........   .  ",
".........   ..  ",
"..   ..    ...  ",
"..        ......",
"....    ........"
};
