/* XPM */
static char *return_xpm[] = {
/* columns rows colors chars-per-pixel */
"16 16 15 1 ",
"  c #0860A9",
". c #0E6CB7",
"X c #0D6DB8",
"o c #106DB6",
"O c #126CB7",
"+ c #126EB7",
"@ c #176EB4",
"# c #146DB7",
"$ c #1770BF",
"% c #1D74B8",
"& c #166FC0",
"* c #1871C1",
"= c #257CC6",
"- c #A9F2FF",
"; c None",
/* pixels */
";;;;;;;;;;;;;;;;",
";;;OOO;;;;;;;;;;",
";;OO-O;;;;;;;;;;",
";;O--OOOOOOOOO;;",
";O-----------O;;",
";O---OOOOOOO-OO;",
";;O--O*&&$=O--O;",
";;OOOO;;;;;O--O;",
";;;;OO;;;;;O--O;",
";;;;;;;;;;;O--O;",
";;;;;;;;;;OO--O;",
";;O%#OOO.XO--OO;",
";;@---------OO;;",
";; ---------O;;;",
";;OOOOOOOOOOO;;;",
";;;;;;;;;;;;;;;;"
};
