/* XPM */
static char *return_xpm[] = {
/* columns rows colors chars-per-pixel */
"16 16 2 1 ",
"  c #FF9C00",
". c None",
/* pixels */
"................",
"........... ....",
"........... ....",
"..........   ...",
"      ..      ..",
"    ..         .",
"  ...          .",
"  ...         ..",
"  ..   .... ....",
"  .. ........ ..",
"  ..........  ..",
"  ..........  ..",
"  ..........  ..",
"              ..",
"              ..",
"................"
};
