/* XPM */
static char *variable_xpm[] = {
/* columns rows colors chars-per-pixel */
"16 16 2 1 ",
"  c #478800",
". c None",
/* pixels */
"................",
".              .",
"                ",
"                ",
" .............. ",
" .............. ",
" ..  ......  .. ",
" .. ..  .  . .. ",
" .. ...  ... .. ",
" .. ..   ... .. ",
" .. .  .   . .. ",
" ..  ......  .. ",
" .............. ",
"  ............  ",
".              .",
"................"
};
