/* XPM */
static char *variable_xpm[] = {
/* columns rows colors chars-per-pixel */
"16 16 83 1 ",
"  c #134713",
". c #144914",
"X c #165116",
"o c #165216",
"O c #175417",
"+ c #175517",
"@ c #185718",
"# c #185818",
"$ c #195A19",
"% c #195C19",
"& c #195D19",
"* c #1A601A",
"= c #1B631B",
"- c #1B651B",
"; c #1C681C",
": c #1D6A1D",
"> c #1D6B1D",
", c #1E6F1E",
"< c #1E701E",
"1 c #1F721F",
"2 c #1F731F",
"3 c #207520",
"4 c #207620",
"5 c #217B21",
"6 c #227E22",
"7 c #238023",
"8 c #238123",
"9 c #238323",
"0 c #248624",
"q c #258825",
"w c #258925",
"e c #268B26",
"r c #268D26",
"t c #279027",
"y c #279127",
"u c #289328",
"i c #289428",
"p c #299629",
"a c #299829",
"s c #299929",
"d c #2A9B2A",
"f c #2B9F2B",
"g c #2CA32C",
"h c #2CA42C",
"j c #2DA62D",
"k c #2DA72D",
"l c #2EAB2E",
"z c #2EAC2E",
"x c #2FAE2F",
"c c #2FAF2F",
"v c #30B130",
"b c #30B230",
"n c #31B631",
"m c #33BC33",
"M c #33BD33",
"N c #34C134",
"B c #34C234",
"V c #39CA39",
"C c #3ACA3A",
"Z c #3CCB3C",
"A c #3DCB3D",
"S c #40CC40",
"D c #42CC42",
"F c #44CD44",
"G c #45CD45",
"H c #47CE47",
"J c #4ACF4A",
"K c #53D153",
"L c #55D255",
"P c #5AD35A",
"I c #5BD35B",
"U c #60D460",
"Y c #65D665",
"T c #68D768",
"R c #6AD76A",
"E c #6ED86E",
"W c #71D971",
"Q c #75DA75",
"! c #78DB78",
"~ c #88DF88",
"^ c #89DF89",
"/ c #9CE49C",
"( c None",
/* pixels */
"((((((((((((((((",
"((((fs((((. ((((",
"((((8zMg(..(((((",
"(((((6zB..((((((",
"(((hg3$-O:gf((((",
"((ugCJDZDZmu8(((",
"((sZFY^/^UZv06((",
"(8lFFYQ!RICnu33(",
"(3lDZIWERKCxu1:(",
"((eZBHKKKZMgq,:(",
"((:zBBCDCMzs8=((",
"(((0vhvvxhaq:&((",
"(((=aauuuq6,+(((",
"((((-q8,:31$((((",
"(((((X&$+&X(((((",
"(((((((((((((((("
};
